HIERARCHY
ROOT Hips
{
  OFFSET 196.326 95.9168 97.7182
  CHANNELS 6 Xposition Yposition Zposition Zrotation Xrotation Yrotation
  JOINT LeftUpLeg
  {
    OFFSET 8.64259 1.95398 -2.38835
    CHANNELS 3 Zrotation Xrotation Yrotation
    JOINT LeftLeg
    {
      OFFSET 43.7702 0 0
      CHANNELS 3 Zrotation Xrotation Yrotation
      JOINT LeftFoot
      {
        OFFSET 40.6238 0 0
        CHANNELS 3 Zrotation Xrotation Yrotation
        JOINT LeftToeBase
        {
          OFFSET 12.7242 0 0
          CHANNELS 3 Zrotation Xrotation Yrotation
          End Site
          {
            OFFSET 0 0 0
          }
        }
      }
    }
  }
  JOINT RightUpLeg
  {
    OFFSET -8.2249 1.95398 -2.59336
    CHANNELS 3 Zrotation Xrotation Yrotation
    JOINT RightLeg
    {
      OFFSET 43.5653 0 0
      CHANNELS 3 Zrotation Xrotation Yrotation
      JOINT RightFoot
      {
        OFFSET 40.6238 0 0
        CHANNELS 3 Zrotation Xrotation Yrotation
        JOINT RightToeBase
        {
          OFFSET 12.7242 0 0
          CHANNELS 3 Zrotation Xrotation Yrotation
          End Site
          {
            OFFSET 0 0 0
          }
        }
      }
    }
  }
  JOINT Spine
  {
    OFFSET 0.165834 0.87714 6.61349
    CHANNELS 3 Zrotation Xrotation Yrotation
    JOINT Spine1
    {
      OFFSET 7.38963 1.71661e-005 0
      CHANNELS 3 Zrotation Xrotation Yrotation
      JOINT Spine2
      {
        OFFSET 11.9445 1.14441e-005 0
        CHANNELS 3 Zrotation Xrotation Yrotation
        JOINT Spine3
        {
          OFFSET 14.7254 4.19617e-005 0
          CHANNELS 3 Zrotation Xrotation Yrotation
          JOINT Spine4
          {
            OFFSET 10.9679 0 0
            CHANNELS 3 Zrotation Xrotation Yrotation
            JOINT RightShoulder
            {
              OFFSET 2.46616 -1.6653 3.69651
              CHANNELS 3 Zrotation Xrotation Yrotation
              JOINT RightArm
              {
                OFFSET 13.0012 0 0
                CHANNELS 3 Zrotation Xrotation Yrotation
                JOINT RightForeArm
                {
                  OFFSET 28.7848 1.52588e-005 0
                  CHANNELS 3 Zrotation Xrotation Yrotation
                  JOINT RightHand
                  {
                    OFFSET 26.5688 1.52588e-005 0
                    CHANNELS 3 Zrotation Xrotation Yrotation
                    End Site
                    {
                      OFFSET 0 0 0
                    }
                  }
                }
              }
            }
            JOINT LeftShoulder
            {
              OFFSET 2.38034 -1.29275 -3.75231
              CHANNELS 3 Zrotation Xrotation Yrotation
              JOINT LeftArm
              {
                OFFSET 16.3182 6.10351e-005 0
                CHANNELS 3 Zrotation Xrotation Yrotation
                JOINT LeftForeArm
                {
                  OFFSET 27.0901 0 0
                  CHANNELS 3 Zrotation Xrotation Yrotation
                  JOINT LeftHand
                  {
                    OFFSET 24.5451 1.52588e-005 0
                    CHANNELS 3 Zrotation Xrotation Yrotation
                    End Site
                    {
                      OFFSET 0 0 0
                    }
                  }
                }
              }
            }
            JOINT Neck
            {
              OFFSET 5.0226 -0.0266342 0
              CHANNELS 3 Zrotation Xrotation Yrotation
              JOINT Head
              {
                OFFSET 6.69363 2.86102e-005 0
                CHANNELS 3 Zrotation Xrotation Yrotation
                End Site
                {
                  OFFSET 0 0 0
                }
              }
            }
          }
        }
      }
    }
  }
}
MOTION
Frames:	17
Frame Time:	0.0416667
339.764 78.2561 222.736 -63.1058 8.21875 83.9275 20.9148 24.0615 -94.4611 -45.9335 58.6417 6.2088 -32.9225 -12.9664 -61.7682 -170.864 54.9173 -84.1353 13.6627 19.7291 -99.1228 -54.6688 -3.82523 14.7727 135.634 -24.3274 0.759779 172.739 73.198 25.6662 -0.871555 0.420314 -104.019 24.1559 -9.65781 -26.4775 12.2608 -10.7746 -26.0698 -8.17214 -1.5994 -28.022 11.8405 -1.59939 -28.022 126.328 49.7246 -164.869 64.8555 -25.6855 -75.9853 -13.5441 -0.854981 -26.5432 0.98887 0.0252016 0.460358 -50.4594 -31.5691 147.237 -36.9672 11.8028 -31.891 79.8329 83.5527 -93.3334 -19.9186 6.66418 -46.2198 -159.965 -83.7929 143.481 5.57705 33.5757 -172.157 
340.04 78.5744 223.103 -61.2907 9.13881 83.355 20.6619 25.3107 -95.0873 -44.0168 58.643 5.14177 -34.4312 -12.9163 -62.613 -170.28 55.1342 -84.361 13.2974 19.9063 -99.671 -55.1368 -6.3289 14.3887 134.859 -24.1382 0.545582 -172.309 58.5671 8.94838 -0.852232 1.10777 -97.7705 29.7809 -6.56925 -15.3077 18.1408 -7.25053 -15.0147 -4.68652 -1.50802 -16.5006 15.3261 -1.50803 -16.5006 100.337 26.5078 -119.432 65.6035 -24.3237 -60.7461 -12.2976 -3.0797 -29.2766 -2.27025 -0.193951 4.14466 -70.5827 -20.3008 113.254 -39.289 20.4909 -43.965 90.3647 84.2652 -103.897 -22.1999 8.81418 -52.2799 -116.901 -80.3319 -171.822 -3.41549 61.0887 -169.163 
341.187 79.4682 224.213 -56.2289 10.1943 80.9189 20.8658 29.3415 -96.1989 -39.3255 58.4669 2.811 -39.4905 -14.9652 -63.9641 -169.219 55.6536 -84.7422 13.0571 21.8725 -99.9796 -55.4858 -11.1497 13.1484 132.372 -23.5454 -0.113391 -168.662 34.0401 0.513496 -0.392063 0.606517 -86.4286 38.9741 2.55613 7.99349 27.3147 2.91645 7.87462 4.66384 -0.0718529 8.37185 24.6765 -0.0718738 8.37185 116.573 -75.2442 -74.7635 48.4052 5.66802 -17.3557 -11.7833 -6.04282 -37.388 -3.21672 -0.312168 4.4787 -89.6535 8.25213 18.3645 -34.893 31.8682 -55.1034 16.1481 85.586 -31.1906 -26.9661 13.2324 -60.2266 35.3327 -24.7787 -16.3406 135.899 -4.55893 -2.82985 
343.282 80.5626 225.676 -42.9501 10.4478 76.4885 21.2242 40.5148 -100.355 -34.1711 58.8737 1.2757 -49.241 -21.8036 -64.2328 -168.617 56.7359 -84.7467 12.909 30.5876 -101.924 -56.7882 -15.9128 11.1175 129.268 -22.6497 -0.914123 -171.047 20.2222 -2.22697 0.393761 -6.21957 -91.0035 38.1581 -0.356182 -3.10445 26.4809 -0.492949 -3.0858 3.99526 0.598526 -3.06723 24.0079 0.598521 -3.06725 93.1504 -39.4192 -97.9746 42.2698 0.23697 -13.3174 -9.6128 -8.95956 -36.141 -2.25883 -0.248122 2.43497 -114.164 -23.6695 27.2363 -15.1187 6.38268 -12.7364 -0.86724 49.781 -6.59228 -35.3024 14.7316 -54.0635 17.915 9.49192 -7.4431 130.103 10.5285 -1.17282 
346.174 82.0198 227.304 -21.2094 6.02357 71.1558 25.9846 58.913 -110.026 -31.6947 52.988 1.49329 -59.1969 -36.7612 -53.9952 -171.645 56.6028 -83.2231 15.6533 48.4765 -107.18 -58.0117 -19.2096 9.11069 126.055 -21.5423 -1.7078 -173.782 14.0728 -3.3843 0.321379 -3.82387 -90.2752 34.5232 0.408012 -0.768772 22.8521 0.373755 -0.78602 0.317648 0.620207 -0.610618 20.3303 0.620188 -0.610625 94.873 -45.8646 -93.9349 38.2832 -0.397965 -6.02704 -9.16056 -9.74551 -37.9509 -0.953554 -0.184536 0.831673 -118.759 -23.0323 18.5353 -15.5962 5.47735 -5.0984 -1.96615 0.883297 -6.25483 -19.3928 2.36913 -20.6984 5.8527 6.76732 -13.534 129.284 22.2991 -0.641068 
348.231 83.7049 228.186 7.02572 -2.92351 69.8744 64.872 78.4185 -155.051 -33.2949 40.1057 2.97193 -45.2516 -53.8762 -20.7725 -176.269 54.3742 -81.6276 35.3635 71.7582 -130.587 -60.3577 -21.0103 7.44528 123.518 -20.5564 -2.32288 -175.828 10.2922 -4.20783 -0.463918 -0.885885 -90.1368 28.6057 -1.2029 -0.699381 16.9351 -1.2325 -0.64575 -5.6017 -0.937103 -1.02857 14.4109 -0.937091 -1.02857 88.893 -48.9916 -102.777 34.8688 -1.40528 -0.883835 -9.62757 -11.1858 -38.7564 -0.0016636 -0.162145 1.3958 -116.966 -25.0864 23.0873 -20.6492 0.423932 0.913429 -2.01591 -12.7878 -15.3311 -2.12873 -0.235834 -4.88584 -0.751363 10.647 -15.6338 125.243 25.7349 -0.106885 
347.992 85.1387 227.886 37.3702 -12.4233 75.4579 155.262 69.3576 109.246 -37.9271 40.4369 4.30242 -4.75439 -52.935 26.0422 168.864 53.4416 -74.4283 134.904 72.7042 126.631 -63.3878 -21.4201 5.73762 121.458 -19.9078 -2.78846 -177.119 6.19364 -5.31142 -1.40248 2.5204 -91.0847 21.6505 -3.12045 -0.663508 9.98297 -3.14664 -0.52542 -12.5743 -2.77674 -1.57122 7.43832 -2.77674 -1.57123 83.5938 -50.6879 -110.304 31.7674 -2.47408 0.846051 -8.52216 -11.2513 -37.9838 -0.648933 -0.182757 1.91634 -113.353 -27.3516 30.5827 -23.8905 0.30408 2.77094 -2.10505 -12.0447 -21.1271 -0.55472 -0.0666064 -2.12615 -1.37889 13.4825 -16.8152 116.842 27.4745 0.929261 
346.562 86.3524 226.476 58.7767 -18.5455 83.8682 167.231 54.3379 96.7504 -44.1406 41.5338 5.68631 33.3667 -17.9338 49.1604 141.573 39.1943 -70.9751 154.793 53.8984 106.55 -63.1628 -21.5389 4.79371 118.968 -19.0568 -3.21888 -177.984 -0.427443 -7.28863 -2.05837 5.29138 -90.7485 16.2923 -4.45275 -0.829538 4.62887 -4.48489 -0.632386 -17.9562 -3.99731 -2.13135 2.05648 -3.99727 -2.13134 79.0502 -52.7821 -116.172 28.299 -3.00982 -0.272064 -7.85706 -10.632 -38.5678 -3.73994 -0.379506 3.77778 -108.712 -28.185 38.7154 -26.3074 2.25515 2.8531 -0.543152 -6.09102 -24.1582 -3.79517 -0.078921 -4.69025 0.9337 15.7088 -17.7893 112.407 26.4477 -0.586875 
345.109 86.6231 225.031 68.7305 -23.5301 89.3892 170.267 46.9369 97.6542 -44.398 45.6969 6.30091 50.7235 3.94857 41.8886 138.648 30.7206 -76.7712 160.174 41.9254 103.574 -62.2281 -22.0393 3.86324 118.455 -18.8543 -3.18297 -179.723 -13.3906 -11.4812 -2.06835 6.60014 -90.6986 13.6667 -4.44107 -0.818468 2.00322 -4.47278 -0.621844 -20.5814 -3.98948 -2.11725 -0.56875 -3.98949 -2.11727 76.4689 -54.8201 -118.989 24.9658 -4.9243 -2.16724 -7.41929 -10.7808 -41.4818 -7.83564 -0.677186 4.3458 -104.267 -29.3212 47.008 -27.3226 6.48891 3.45833 0.105586 -1.56153 -28.9291 -3.03001 -0.0917713 -4.15315 4.43349 16.8657 -22.8001 92.294 32.3427 5.76832 
343.521 86.3876 223.915 73.0275 -28.3083 91.4791 172.189 44.1666 99.9916 -39.6259 54.7083 5.26123 53.3125 4.4123 36.6828 155.643 31.7131 -81.5155 165.318 31.4548 101.188 -59.9702 -21.0516 3.09962 119.776 -19.5458 -2.68836 167.877 -45.3825 -27.7007 -1.62172 6.62889 -90.4178 13.6194 -3.41966 -0.399916 1.95288 -3.43391 -0.24886 -20.6136 -3.14123 -1.41014 -0.600908 -3.14124 -1.41015 74.8021 -57.0514 -120.345 22.7898 -6.81842 -0.847604 -9.00068 -11.1224 -46.3874 -8.6831 -0.719049 3.99514 -101.224 -28.6511 51.9019 -33.6777 7.81188 7.78456 0.251098 -0.765478 -31.2544 5.95994 0.243318 0.0760116 34.4471 -2.87207 -27.5829 -63.1489 -9.19999 24.5981 
341.243 86.5354 222.763 76.3919 -32.4833 91.9798 176.171 40.9507 99.7391 -30.0109 45.9069 2.57648 55.6391 2.26838 23.0932 173.985 29.3649 -87.768 170.588 16.858 98.2665 -52.8657 -13.5067 2.66467 117.39 -19.7404 -2.66362 67.3561 -27.5833 -94.2333 -0.929433 6.53772 -90.3122 13.7967 -1.99495 -0.367928 2.12736 -2.00923 -0.279745 -20.4179 -1.79207 -0.950643 -0.40524 -1.79208 -0.950655 79.4256 -54.0908 -115.093 24.3717 -8.18109 -2.00916 -12.6041 -13.0413 -50.226 -9.35058 -0.966585 6.78264 -100.127 -31.178 55.2179 -38.343 7.60314 11.1271 0.898354 0.759577 -32.2067 14.7034 1.00998 3.01486 26.1716 -0.918202 -23.2834 -37.6973 0.111184 25.6037 
338.188 87.7032 221.496 80.938 -37.5141 91.0861 -177.848 32.2506 97.0523 -15.4157 22.7274 0.572783 59.5763 4.16445 5.12743 -173.922 22.4622 -94.9752 173.391 7.70926 94.8503 -49.9152 -1.81362 1.4759 100.143 -14.294 -3.73883 50.5508 -14.6018 -47.953 -0.205773 6.82462 -90.2632 13.2258 -0.535389 -0.460377 1.55484 -0.555137 -0.436372 -20.9801 -0.372301 -0.600005 -0.967501 -0.372288 -0.600003 83.2661 -49.4037 -111.244 23.6144 -9.44548 -6.28332 -15.3847 -15.2019 -52.4234 -11.4127 -1.13092 6.67089 -98.5042 -36.8432 60.9586 -38.0617 8.92499 11.1701 1.80642 3.98433 -32.3262 14.1111 1.11875 3.9807 25.0859 0.635611 -11.9909 -18.5064 3.06375 18.5287 
333.129 88.8593 219.162 87.4808 -43.5248 90.8914 -174.985 24.0053 94.9396 -8.2724 3.03034 0.292118 55.0248 1.68543 -3.99833 130.102 -13.785 -114.526 175.309 8.47207 91.3735 -51.7784 5.27297 -1.1667 79.3944 -6.70366 -3.01983 73.9742 2.43927 -1.22104 0.344106 7.02629 -89.9991 12.8218 0.683839 -0.0799868 1.15098 0.679648 -0.110013 -21.3856 0.676248 0.129238 -1.37294 0.676254 0.129241 80.2219 -48.708 -116.082 20.2637 -8.77256 -6.1002 -16.4701 -14.9313 -54.2773 -9.47762 -0.846941 4.81934 -99.6066 -39.7488 60.4562 -38.9519 6.65181 13.9349 2.31064 3.72163 -30.3757 11.7623 0.91506 3.72767 14.9399 0.173799 -2.76093 -2.92784 1.1776 8.00251 
325.934 90.1829 215.316 92.5286 -48.0858 92.4025 -173.583 22.0104 94.5956 -7.94294 20.3879 -1.07633 31.6672 -15.6614 19.1232 92.4823 6.80271 -94.4053 177.668 10.1246 92.0237 -51.36 6.66122 -3.2668 78.4088 -6.26338 -2.83145 50.9046 4.99131 24.3005 0.698315 7.73643 -90.2297 11.4046 1.28226 -0.585344 -0.265831 1.25527 -0.641232 -22.806 1.3989 -0.17284 -2.79331 1.3989 -0.172849 83.4148 -45.8627 -112.288 18.8354 -9.21253 -11.7565 -14.3164 -14.7959 -52.4074 -9.29827 -0.841803 4.91527 -102.79 -44.6865 57.731 -34.6942 6.17935 9.08987 2.0995 3.46444 -27.6759 11.7697 0.935068 3.8878 16.4781 1.59736 8.45808 2.17364 -0.918424 -1.24433 
318.447 92.3661 211.231 93.2192 -48.3344 92.5081 -173.276 21.4072 95.8909 -6.61106 6.20331 -0.305679 0.98172 -38.6297 13.2117 124.77 12.3034 -96.5214 178.519 11.2768 93.8925 -44.5628 7.83063 -2.50886 75.8889 -5.49746 -2.60221 47.6754 3.07408 18.3225 0.614011 7.62948 -90.0417 11.6168 1.20192 -0.206992 -0.0536462 1.19166 -0.259699 -22.5932 1.20855 0.163859 -2.58052 1.20856 0.163866 77.5297 -50.6007 -119.268 17.9844 -7.46806 -5.48638 -11.1377 -13.3324 -48.692 -11.1886 -0.98459 5.0927 -103.676 -43.0728 55.6442 -32.1495 4.97405 9.6989 2.50481 1.92779 -30.7681 12.6759 0.956777 3.5598 7.74016 0.412296 2.72617 10.1587 0.166132 2.11002 
312.65 94.7046 207.544 93.6836 -47.7736 91.0758 -170.846 21.4485 92.7116 -26.6712 4.05176 -1.28926 32.3549 -14.2802 16.7568 101.869 18.2351 -52.6666 178.893 12.9476 93.0915 -38.9656 7.84524 -2.20905 70.8707 -3.96685 -2.02158 42.8228 2.01556 18.8464 0.372534 7.55169 -89.9039 11.7701 0.786025 0.107542 0.0994076 0.789974 0.072837 -22.4374 0.717352 0.338813 -2.42479 0.717354 0.338809 78.5805 -50.2547 -117.876 22.1243 -9.00578 1.63618 -9.33283 -15.2983 -43.0484 -8.19842 -0.76272 5.04424 -103.166 -42.3802 56.0908 -31.0901 3.32729 8.87616 4.51344 2.16113 -38.2415 14.9193 1.31486 4.8299 6.46302 0.297074 1.34827 9.60305 0.395204 2.56319 
308.071 95.8471 203.851 93.1739 -46.8498 90.3683 -168.935 17.1657 91.7794 -44.5264 12.2583 -2.31142 47.293 -3.13104 15.5928 59.4886 30.3946 -7.06208 178.969 15.0574 92.6957 -34.7189 6.27961 -1.478 67.6913 -2.62179 -1.39861 34.5304 0.13707 17.4098 0.0326905 7.26945 -90.0012 12.335 0.0645128 -0.00965049 0.664046 0.0640202 -0.012491 -21.8711 0.0644211 0.0101783 -1.85849 0.0644309 0.0101767 78.7479 -50.3628 -117.587 24.9341 -9.97019 11.3907 -8.15694 -17.0556 -38.6919 -5.10744 -0.580023 6.24026 -102.931 -41.9012 56.2231 -30.371 2.69513 8.6881 8.91141 5.79367 -45.9248 17.1456 1.60691 5.47551 5.24632 0.852281 1.70916 8.05302 0.914728 3.02097 
